<svg width="38" height="38" viewBox="0 0 38 38" fill="none" xmlns="http://www.w3.org/2000/svg">
<path d="M34.8334 5.39917L34.6434 3.40417L32.7435 4.03751C29.4872 5.16887 26.0099 5.51605 22.5943 5.05084C19.0051 4.49384 15.3314 4.9888 12.0176 6.47584C10.2609 7.22388 8.71914 8.39946 7.53278 9.89554C6.34643 11.3916 5.55313 13.1607 5.22512 15.0417C4.7998 17.4716 5.01257 19.9703 5.84262 22.2933C6.37708 21.087 7.00162 19.9226 7.71095 18.81C9.31993 16.4427 11.5494 14.5638 14.1551 13.3792C16.6654 12.233 19.4092 11.6908 22.1668 11.7958C19.5416 12.1972 17.0289 13.1409 14.7884 14.5667C13.7078 15.2457 12.7181 16.0598 11.8434 16.9892C11.0069 17.9182 10.2693 18.9317 9.64262 20.0133C8.46545 22.2744 7.62785 24.6965 7.15678 27.2017C6.64903 29.715 6.37342 32.2696 6.33345 34.8333H9.50012C9.64895 32.5341 9.96112 30.2483 10.4343 27.9933C12.6311 29.1796 15.0946 29.7846 17.5909 29.7508C19.9192 29.7492 22.2235 29.2808 24.3676 28.3733C36.4168 23.2275 34.8334 6.11167 34.8334 5.39917Z" fill="white"/>
</svg>
