<svg width="1533" height="45" viewBox="0 0 1533 45" fill="none" xmlns="http://www.w3.org/2000/svg">
<path d="M754.609 4.21875V40.7812C754.609 41.3407 754.387 41.8772 753.992 42.2728C753.596 42.6684 753.06 42.8906 752.5 42.8906C751.941 42.8906 751.404 42.6684 751.009 42.2728C750.613 41.8772 750.391 41.3407 750.391 40.7812V4.21875C750.391 3.65931 750.613 3.12278 751.009 2.7272C751.404 2.33161 751.941 2.10938 752.5 2.10938C753.06 2.10938 753.596 2.33161 753.992 2.7272C754.387 3.12278 754.609 3.65931 754.609 4.21875Z" fill="#0FA958"/>
<path d="M757.318 12.1616L757.671 12.5151L757.318 12.1616C757.004 12.4751 756.828 12.9003 756.828 13.3438V33.6562C756.828 34.0997 757.004 34.5249 757.318 34.8384C757.631 35.152 758.057 35.3281 758.5 35.3281C758.943 35.3281 759.369 35.152 759.682 34.8384C759.996 34.5249 760.172 34.0997 760.172 33.6562V13.3438C760.172 12.9003 759.996 12.4751 759.682 12.1616C759.369 11.848 758.943 11.6719 758.5 11.6719C758.057 11.6719 757.631 11.848 757.318 12.1616Z" fill="#0FA958" stroke="#0FA958"/>
<path d="M744.99 11.9897L745.343 12.3432L744.99 11.9897C744.676 12.3032 744.5 12.7285 744.5 13.1719V33.4844C744.5 33.9278 744.676 34.353 744.99 34.6666C745.303 34.9801 745.729 35.1562 746.172 35.1562C746.615 35.1562 747.041 34.9801 747.354 34.6666C747.668 34.353 747.844 33.9278 747.844 33.4844V13.1719C747.844 12.7285 747.668 12.3032 747.354 11.9897C747.041 11.6761 746.615 11.5 746.172 11.5C745.729 11.5 745.303 11.6761 744.99 11.9897Z" fill="#0FA958" stroke="#0FA958"/>
<path d="M2.99921 21.75H726.006" stroke="#0FA958" stroke-width="5" stroke-linecap="round"/>
<path d="M779.995 20.0159H1530.01" stroke="#0FA958" stroke-width="5" stroke-linecap="round"/>
</svg>
