<svg width="32" height="32" viewBox="0 0 32 32" fill="none" xmlns="http://www.w3.org/2000/svg">
<g clip-path="url(#clip0_21_482)">
<path d="M16 22.6667C16.7073 22.6667 17.3856 22.3857 17.8857 21.8856C18.3858 21.3855 18.6667 20.7072 18.6667 20C18.6667 19.2928 18.3858 18.6145 17.8857 18.1144C17.3856 17.6143 16.7073 17.3333 16 17.3333C15.2928 17.3333 14.6145 17.6143 14.1144 18.1144C13.6143 18.6145 13.3334 19.2928 13.3334 20C13.3334 20.7072 13.6143 21.3855 14.1144 21.8856C14.6145 22.3857 15.2928 22.6667 16 22.6667ZM24 10.6667C24.7073 10.6667 25.3856 10.9476 25.8857 11.4477C26.3858 11.9478 26.6667 12.6261 26.6667 13.3333V26.6667C26.6667 27.3739 26.3858 28.0522 25.8857 28.5523C25.3856 29.0524 24.7073 29.3333 24 29.3333H8.00004C7.2928 29.3333 6.61452 29.0524 6.11442 28.5523C5.61433 28.0522 5.33337 27.3739 5.33337 26.6667V13.3333C5.33337 12.6261 5.61433 11.9478 6.11442 11.4477C6.61452 10.9476 7.2928 10.6667 8.00004 10.6667H9.33337V8C9.33337 6.23189 10.0358 4.5362 11.286 3.28596C12.5362 2.03571 14.2319 1.33334 16 1.33334C16.8755 1.33334 17.7424 1.50577 18.5513 1.84081C19.3601 2.17584 20.095 2.6669 20.7141 3.28596C21.3331 3.90501 21.8242 4.63994 22.1592 5.44878C22.4943 6.25762 22.6667 7.12452 22.6667 8V10.6667H24ZM16 4C14.9392 4 13.9218 4.42143 13.1716 5.17158C12.4215 5.92172 12 6.93914 12 8V10.6667H20V8C20 6.93914 19.5786 5.92172 18.8285 5.17158C18.0783 4.42143 17.0609 4 16 4Z" fill="#C0C0C0"/>
</g>
<defs>
<clipPath id="clip0_21_482">
<rect width="32" height="32" fill="white"/>
</clipPath>
</defs>
</svg>
