<svg width="300" height="300" viewBox="0 0 300 300" fill="none" xmlns="http://www.w3.org/2000/svg">
<path d="M46.875 46.875V121.875H65.625V140.625H84.375V121.875H121.875V46.875H46.875ZM121.875 121.875V140.625H140.625V159.375H103.125V178.125H46.875V253.125H121.875V178.125H178.125V159.375H159.375V140.625H196.875V121.875H215.625V140.625H234.375V121.875H253.125V46.875H178.125V121.875H121.875ZM234.375 140.625V159.375H253.125V140.625H234.375ZM234.375 159.375H215.625V178.125H234.375V159.375ZM234.375 178.125V196.875H253.125V178.125H234.375ZM234.375 196.875H215.625V178.125H196.875V196.875H150V253.125H168.75V215.625H206.25V234.375H225V215.625H234.375V196.875ZM206.25 234.375H187.5V253.125H206.25V234.375ZM215.625 159.375V140.625H196.875V159.375H215.625ZM103.125 159.375V140.625H84.375V159.375H103.125ZM65.625 140.625H46.875V159.375H65.625V140.625ZM140.625 46.875V84.375H131.25V103.125H140.625V112.5H159.375V84.375H168.75V65.625H159.375V46.875H140.625ZM65.625 65.625H103.125V103.125H65.625V65.625ZM196.875 65.625H234.375V103.125H196.875V65.625ZM75 75V93.75H93.75V75H75ZM206.25 75V93.75H225V75H206.25ZM65.625 196.875H103.125V234.375H65.625V196.875ZM75 206.25V225H93.75V206.25H75ZM234.375 234.375V253.125H253.125V234.375H234.375Z" fill="black"/>
</svg>
