<svg width="524" height="166" viewBox="0 0 524 166" fill="none" xmlns="http://www.w3.org/2000/svg">
<path d="M167.72 73.32C166.483 70.7173 164.691 68.712 162.344 67.304C159.997 65.8533 157.267 65.128 154.152 65.128C151.037 65.128 148.221 65.8533 145.704 67.304C143.229 68.712 141.267 70.76 139.816 73.448C138.408 76.0933 137.704 79.1653 137.704 82.664C137.704 86.1627 138.408 89.2347 139.816 91.88C141.267 94.5253 143.229 96.5733 145.704 98.024C148.221 99.432 151.037 100.136 154.152 100.136C158.504 100.136 162.088 98.8347 164.904 96.232C167.72 93.6293 169.363 90.1093 169.832 85.672H152.04V80.936H176.04V85.416C175.699 89.0853 174.547 92.456 172.584 95.528C170.621 98.5573 168.04 100.968 164.84 102.76C161.64 104.509 158.077 105.384 154.152 105.384C150.013 105.384 146.237 104.424 142.824 102.504C139.411 100.541 136.701 97.832 134.696 94.376C132.733 90.92 131.752 87.016 131.752 82.664C131.752 78.312 132.733 74.408 134.696 70.952C136.701 67.4533 139.411 64.744 142.824 62.824C146.237 60.8613 150.013 59.88 154.152 59.88C158.888 59.88 163.069 61.0533 166.696 63.4C170.365 65.7467 173.032 69.0533 174.696 73.32H167.72ZM187.844 75.624C188.868 73.6187 190.319 72.0613 192.196 70.952C194.116 69.8427 196.442 69.288 199.173 69.288V75.304H197.636C191.108 75.304 187.844 78.8453 187.844 85.928V105H182.02V69.928H187.844V75.624ZM236.175 86.12C236.175 87.2293 236.111 88.4027 235.983 89.64H207.951C208.165 93.096 209.338 95.8053 211.471 97.768C213.647 99.688 216.271 100.648 219.343 100.648C221.861 100.648 223.951 100.072 225.615 98.92C227.322 97.7253 228.517 96.1467 229.199 94.184H235.472C234.533 97.5547 232.655 100.307 229.839 102.44C227.023 104.531 223.525 105.576 219.343 105.576C216.015 105.576 213.029 104.829 210.383 103.336C207.781 101.843 205.733 99.7307 204.239 97C202.746 94.2267 201.999 91.0267 201.999 87.4C201.999 83.7733 202.725 80.5947 204.175 77.864C205.626 75.1333 207.653 73.0427 210.255 71.592C212.901 70.0987 215.93 69.352 219.343 69.352C222.671 69.352 225.615 70.0773 228.175 71.528C230.735 72.9787 232.698 74.984 234.063 77.544C235.471 80.0613 236.175 82.92 236.175 86.12ZM230.159 84.904C230.159 82.6853 229.669 80.7867 228.687 79.208C227.706 77.5867 226.362 76.3707 224.655 75.56C222.991 74.7067 221.135 74.28 219.087 74.28C216.143 74.28 213.626 75.2187 211.535 77.096C209.487 78.9733 208.314 81.576 208.015 84.904H230.159ZM274.143 86.12C274.143 87.2293 274.079 88.4027 273.951 89.64H245.919C246.132 93.096 247.306 95.8053 249.439 97.768C251.615 99.688 254.239 100.648 257.311 100.648C259.828 100.648 261.919 100.072 263.583 98.92C265.29 97.7253 266.484 96.1467 267.167 94.184H273.439C272.5 97.5547 270.623 100.307 267.807 102.44C264.991 104.531 261.492 105.576 257.311 105.576C253.983 105.576 250.996 104.829 248.351 103.336C245.748 101.843 243.7 99.7307 242.207 97C240.714 94.2267 239.967 91.0267 239.967 87.4C239.967 83.7733 240.692 80.5947 242.143 77.864C243.594 75.1333 245.62 73.0427 248.223 71.592C250.868 70.0987 253.898 69.352 257.311 69.352C260.639 69.352 263.583 70.0773 266.143 71.528C268.703 72.9787 270.666 74.984 272.031 77.544C273.439 80.0613 274.143 82.92 274.143 86.12ZM268.127 84.904C268.127 82.6853 267.636 80.7867 266.655 79.208C265.674 77.5867 264.33 76.3707 262.623 75.56C260.959 74.7067 259.103 74.28 257.055 74.28C254.111 74.28 251.594 75.2187 249.503 77.096C247.455 78.9733 246.282 81.576 245.983 84.904H268.127ZM297.198 69.288C301.465 69.288 304.921 70.5893 307.566 73.192C310.212 75.752 311.534 79.464 311.534 84.328V105H305.774V85.16C305.774 81.6613 304.9 78.9947 303.15 77.16C301.401 75.2827 299.012 74.344 295.982 74.344C292.91 74.344 290.457 75.304 288.622 77.224C286.83 79.144 285.934 81.9387 285.934 85.608V105H280.11V69.928H285.934V74.92C287.086 73.128 288.644 71.7413 290.606 70.76C292.612 69.7787 294.809 69.288 297.198 69.288Z" fill="#0FA958"/>
<path d="M390.734 60.392L377.806 105H371.278L360.91 69.096L350.158 105L343.694 105.064L331.214 60.392H337.422L347.15 98.216L357.902 60.392H364.43L374.67 98.088L384.462 60.392H390.734ZM410.684 105.576C407.399 105.576 404.412 104.829 401.724 103.336C399.079 101.843 396.988 99.7307 395.452 97C393.959 94.2267 393.212 91.0267 393.212 87.4C393.212 83.816 393.98 80.6587 395.516 77.928C397.095 75.1547 399.228 73.0427 401.916 71.592C404.604 70.0987 407.612 69.352 410.94 69.352C414.268 69.352 417.276 70.0987 419.964 71.592C422.652 73.0427 424.764 75.1333 426.3 77.864C427.879 80.5947 428.668 83.7733 428.668 87.4C428.668 91.0267 427.857 94.2267 426.236 97C424.657 99.7307 422.503 101.843 419.772 103.336C417.041 104.829 414.012 105.576 410.684 105.576ZM410.684 100.456C412.775 100.456 414.737 99.9653 416.572 98.984C418.407 98.0027 419.879 96.5307 420.988 94.568C422.14 92.6053 422.716 90.216 422.716 87.4C422.716 84.584 422.161 82.1947 421.052 80.232C419.943 78.2693 418.492 76.8187 416.7 75.88C414.908 74.8987 412.967 74.408 410.876 74.408C408.743 74.408 406.78 74.8987 404.988 75.88C403.239 76.8187 401.831 78.2693 400.764 80.232C399.697 82.1947 399.164 84.584 399.164 87.4C399.164 90.2587 399.676 92.6693 400.7 94.632C401.767 96.5947 403.175 98.0667 404.924 99.048C406.673 99.9867 408.593 100.456 410.684 100.456ZM440.429 75.624C441.453 73.6187 442.904 72.0613 444.781 70.952C446.701 69.8427 449.027 69.288 451.757 69.288V75.304H450.221C443.693 75.304 440.429 78.8453 440.429 85.928V105H434.605V69.928H440.429V75.624ZM462.584 57.64V105H456.76V57.64H462.584ZM468.614 87.336C468.614 83.752 469.34 80.616 470.79 77.928C472.241 75.1973 474.225 73.0853 476.742 71.592C479.302 70.0987 482.161 69.352 485.318 69.352C488.049 69.352 490.588 69.992 492.934 71.272C495.281 72.5093 497.073 74.152 498.31 76.2V57.64H504.198V105H498.31V98.408C497.158 100.499 495.452 102.227 493.19 103.592C490.929 104.915 488.284 105.576 485.254 105.576C482.14 105.576 479.302 104.808 476.742 103.272C474.225 101.736 472.241 99.5813 470.79 96.808C469.34 94.0347 468.614 90.8773 468.614 87.336ZM498.31 87.4C498.31 84.7547 497.777 82.4507 496.71 80.488C495.644 78.5253 494.193 77.032 492.358 76.008C490.566 74.9413 488.582 74.408 486.406 74.408C484.23 74.408 482.246 74.92 480.454 75.944C478.662 76.968 477.233 78.4613 476.166 80.424C475.1 82.3867 474.566 84.6907 474.566 87.336C474.566 90.024 475.1 92.3707 476.166 94.376C477.233 96.3387 478.662 97.8533 480.454 98.92C482.246 99.944 484.23 100.456 486.406 100.456C488.582 100.456 490.566 99.944 492.358 98.92C494.193 97.8533 495.644 96.3387 496.71 94.376C497.777 92.3707 498.31 90.0453 498.31 87.4Z" fill="black"/>
<path d="M101.444 43.3905L100.891 37.5805L95.3578 39.425C85.8746 42.7198 75.7479 43.7309 65.8005 42.3761C55.3478 40.754 44.649 42.1954 34.9983 46.5261C29.8822 48.7046 25.3922 52.1282 21.9372 56.4852C18.4822 60.8422 16.1719 65.9942 15.2167 71.4722C13.978 78.5488 14.5977 85.8258 17.015 92.5911C18.5715 89.0778 20.3903 85.6868 22.4561 82.4466C27.1419 75.5523 33.6347 70.0805 41.2233 66.6305C48.534 63.2927 56.5248 61.7135 64.5555 62.0194C56.9104 63.1883 49.5925 65.9365 43.0678 70.0889C39.9206 72.0663 37.0384 74.4371 34.4911 77.1439C32.0549 79.8493 29.9068 82.801 28.0817 85.9511C24.6534 92.5358 22.2141 99.5897 20.8422 106.886C19.3635 114.205 18.5609 121.645 18.4444 129.111H27.6667C28.1001 122.415 29.0092 115.758 30.3872 109.191C36.7848 112.646 43.9593 114.408 51.2294 114.309C58.01 114.305 64.7207 112.941 70.965 110.298C106.056 95.3116 101.444 45.4655 101.444 43.3905Z" fill="#0FA958"/>
</svg>
