<svg width="32" height="32" viewBox="0 0 32 32" fill="none" xmlns="http://www.w3.org/2000/svg">
<path d="M4 4L28 28" stroke="#C0C0C0" stroke-width="2.66667" stroke-linecap="round" stroke-linejoin="round"/>
<path fill-rule="evenodd" clip-rule="evenodd" d="M7.19999 8.30667C6.61333 8.74667 6.07599 9.21067 5.58666 9.68267C3.95222 11.2696 2.5992 13.1226 1.58533 15.1627C1.45857 15.4234 1.3927 15.7095 1.3927 15.9993C1.3927 16.2892 1.45857 16.5753 1.58533 16.836C2.59867 18.8764 3.95124 20.7299 5.58533 22.3173C7.91999 24.564 11.3573 26.6667 16 26.6667C18.9813 26.6667 21.4667 25.8 23.48 24.584L18.2213 19.3267C17.4519 19.8406 16.528 20.0719 15.6072 19.9812C14.6863 19.8904 13.8254 19.4832 13.1711 18.8289C12.5168 18.1746 12.1096 17.3137 12.0188 16.3928C11.9281 15.472 12.1594 14.5481 12.6733 13.7787L7.20133 8.30534L7.19999 8.30667ZM27.5547 21.1173C28.6877 19.8193 29.6489 18.3808 30.4147 16.8373C30.5414 16.5766 30.6073 16.2905 30.6073 16.0007C30.6073 15.7108 30.5414 15.4247 30.4147 15.164C29.4014 13.1236 28.0488 11.2701 26.4147 9.68267C24.08 7.436 20.644 5.33334 16 5.33334C14.7362 5.33013 13.4774 5.49286 12.256 5.81734L27.5547 21.1173Z" fill="#C0C0C0"/>
</svg>
