<svg width="32" height="32" viewBox="0 0 32 32" fill="none" xmlns="http://www.w3.org/2000/svg">
<path d="M9.33331 29.3333C8.59998 29.3333 7.97242 29.0724 7.45065 28.5507C6.92887 28.0289 6.66754 27.4009 6.66665 26.6667C6.66576 25.9324 6.92709 25.3049 7.45065 24.784C7.9742 24.2631 8.60176 24.0018 9.33331 24C10.0649 23.9982 10.6929 24.2595 11.2173 24.784C11.7418 25.3084 12.0026 25.936 12 26.6667C11.9973 27.3973 11.7364 28.0253 11.2173 28.5507C10.6982 29.076 10.0702 29.3369 9.33331 29.3333ZM22.6666 29.3333C21.9333 29.3333 21.3058 29.0724 20.784 28.5507C20.2622 28.0289 20.0009 27.4009 20 26.6667C19.9991 25.9324 20.2604 25.3049 20.784 24.784C21.3075 24.2631 21.9351 24.0018 22.6666 24C23.3982 23.9982 24.0262 24.2595 24.5506 24.784C25.0751 25.3084 25.336 25.936 25.3333 26.6667C25.3306 27.3973 25.0698 28.0253 24.5506 28.5507C24.0315 29.076 23.4035 29.3369 22.6666 29.3333ZM6.93331 5.33332H26.6C27.1111 5.33332 27.5 5.56132 27.7666 6.01732C28.0333 6.47332 28.0444 6.93421 27.8 7.39999L23.0666 15.9333C22.8222 16.3778 22.4946 16.7222 22.084 16.9667C21.6733 17.2111 21.2231 17.3333 20.7333 17.3333H10.8L9.33331 20H25.3333V22.6667H9.33331C8.33331 22.6667 7.57776 22.228 7.06665 21.3507C6.55554 20.4733 6.53331 19.6009 6.99998 18.7333L8.79998 15.4667L3.99998 5.33332H1.33331V2.66666H5.66665L6.93331 5.33332Z" fill="white"/>
</svg>
