<svg width="100" height="100" viewBox="0 0 100 100" fill="none" xmlns="http://www.w3.org/2000/svg">
<path d="M37.5 12.5V4.16667H62.5V12.5H37.5ZM45.8333 58.3333H54.1667V33.3333H45.8333V58.3333ZM50 91.6667C44.8611 91.6667 40.0167 90.6778 35.4667 88.7C30.9167 86.7222 26.9417 84.0306 23.5417 80.625C20.1417 77.2194 17.4514 73.2431 15.4708 68.6958C13.4903 64.1486 12.5 59.3056 12.5 54.1667C12.5 49.0278 13.4903 44.1833 15.4708 39.6333C17.4514 35.0833 20.1417 31.1083 23.5417 27.7083C26.9417 24.3083 30.9181 21.6181 35.4708 19.6375C40.0236 17.6569 44.8667 16.6667 50 16.6667C54.3056 16.6667 58.4375 17.3611 62.3958 18.75C66.3542 20.1389 70.0694 22.1528 73.5417 24.7917L79.375 18.9583L85.2083 24.7917L79.375 30.625C82.0139 34.0972 84.0278 37.8125 85.4167 41.7708C86.8055 45.7292 87.5 49.8611 87.5 54.1667C87.5 59.3056 86.5097 64.15 84.5292 68.7C82.5486 73.25 79.8583 77.225 76.4583 80.625C73.0583 84.025 69.0819 86.7167 64.5292 88.7C59.9764 90.6833 55.1333 91.6722 50 91.6667Z" fill="#3483FA"/>
</svg>
