<svg width="32" height="32" viewBox="0 0 32 32" fill="none" xmlns="http://www.w3.org/2000/svg">
<g clip-path="url(#clip0_226_164)">
<path d="M16 2.66666C13.5247 2.66666 11.1507 3.64999 9.40035 5.40033C7.65001 7.15067 6.66668 9.52464 6.66668 12V16.704C6.66687 16.9108 6.61894 17.1149 6.52668 17.3L4.23734 21.8773C4.12551 22.101 4.0727 22.3495 4.08394 22.5992C4.09518 22.849 4.17008 23.0918 4.30154 23.3044C4.43299 23.5171 4.61664 23.6927 4.83503 23.8144C5.05342 23.9361 5.29931 24 5.54934 24H26.4507C26.7007 24 26.9466 23.9361 27.165 23.8144C27.3834 23.6927 27.567 23.5171 27.6985 23.3044C27.8299 23.0918 27.9048 22.849 27.9161 22.5992C27.9273 22.3495 27.8745 22.101 27.7627 21.8773L25.4747 17.3C25.382 17.115 25.3336 16.9109 25.3333 16.704V12C25.3333 9.52464 24.35 7.15067 22.5997 5.40033C20.8493 3.64999 18.4754 2.66666 16 2.66666ZM16 28C15.1725 28.0002 14.3653 27.7439 13.6895 27.2663C13.0138 26.7888 12.5027 26.1134 12.2267 25.3333H19.7733C19.4973 26.1134 18.9862 26.7888 18.3105 27.2663C17.6347 27.7439 16.8275 28.0002 16 28Z" fill="white"/>
</g>
<defs>
<clipPath id="clip0_226_164">
<rect width="32" height="32" fill="white"/>
</clipPath>
</defs>
</svg>
