<svg width="229" height="56" viewBox="0 0 229 56" fill="none" xmlns="http://www.w3.org/2000/svg">
<path d="M65.36 23.16C64.7413 21.8587 63.8453 20.856 62.672 20.152C61.4987 19.4267 60.1333 19.064 58.576 19.064C57.0187 19.064 55.6107 19.4267 54.352 20.152C53.1147 20.856 52.1333 21.88 51.408 23.224C50.704 24.5467 50.352 26.0827 50.352 27.832C50.352 29.5813 50.704 31.1173 51.408 32.44C52.1333 33.7627 53.1147 34.7867 54.352 35.512C55.6107 36.216 57.0187 36.568 58.576 36.568C60.752 36.568 62.544 35.9173 63.952 34.616C65.36 33.3147 66.1813 31.5547 66.416 29.336H57.52V26.968H69.52V29.208C69.3493 31.0427 68.7733 32.728 67.792 34.264C66.8107 35.7787 65.52 36.984 63.92 37.88C62.32 38.7547 60.5387 39.192 58.576 39.192C56.5067 39.192 54.6187 38.712 52.912 37.752C51.2053 36.7707 49.8507 35.416 48.848 33.688C47.8667 31.96 47.376 30.008 47.376 27.832C47.376 25.656 47.8667 23.704 48.848 21.976C49.8507 20.2267 51.2053 18.872 52.912 17.912C54.6187 16.9307 56.5067 16.44 58.576 16.44C60.944 16.44 63.0347 17.0267 64.848 18.2C66.6827 19.3733 68.016 21.0267 68.848 23.16H65.36ZM74.5622 24.312C75.0742 23.3093 75.7996 22.5307 76.7382 21.976C77.6982 21.4213 78.8609 21.144 80.2262 21.144V24.152H79.4582C76.1942 24.152 74.5622 25.9227 74.5622 29.464V39H71.6502V21.464H74.5622V24.312ZM97.8677 29.56C97.8677 30.1147 97.8357 30.7013 97.7717 31.32H83.7557C83.8624 33.048 84.4491 34.4027 85.5157 35.384C86.6037 36.344 87.9157 36.824 89.4517 36.824C90.7104 36.824 91.7557 36.536 92.5877 35.96C93.4411 35.3627 94.0384 34.5733 94.3797 33.592H97.5157C97.0464 35.2773 96.1077 36.6533 94.6997 37.72C93.2917 38.7653 91.5424 39.288 89.4517 39.288C87.7877 39.288 86.2944 38.9147 84.9717 38.168C83.6704 37.4213 82.6464 36.3653 81.8997 35C81.1531 33.6133 80.7797 32.0133 80.7797 30.2C80.7797 28.3867 81.1424 26.7973 81.8677 25.432C82.5931 24.0667 83.6064 23.0213 84.9077 22.296C86.2304 21.5493 87.7451 21.176 89.4517 21.176C91.1157 21.176 92.5877 21.5387 93.8677 22.264C95.1477 22.9893 96.1291 23.992 96.8117 25.272C97.5157 26.5307 97.8677 27.96 97.8677 29.56ZM94.8597 28.952C94.8597 27.8427 94.6144 26.8933 94.1237 26.104C93.6331 25.2933 92.9611 24.6853 92.1077 24.28C91.2757 23.8533 90.3477 23.64 89.3237 23.64C87.8517 23.64 86.5931 24.1093 85.5477 25.048C84.5237 25.9867 83.9371 27.288 83.7877 28.952H94.8597ZM115.991 29.56C115.991 30.1147 115.959 30.7013 115.895 31.32H101.879C101.986 33.048 102.573 34.4027 103.639 35.384C104.727 36.344 106.039 36.824 107.575 36.824C108.834 36.824 109.879 36.536 110.711 35.96C111.565 35.3627 112.162 34.5733 112.503 33.592H115.639C115.17 35.2773 114.231 36.6533 112.823 37.72C111.415 38.7653 109.666 39.288 107.575 39.288C105.911 39.288 104.418 38.9147 103.095 38.168C101.794 37.4213 100.77 36.3653 100.023 35C99.2768 33.6133 98.9035 32.0133 98.9035 30.2C98.9035 28.3867 99.2662 26.7973 99.9915 25.432C100.717 24.0667 101.73 23.0213 103.031 22.296C104.354 21.5493 105.869 21.176 107.575 21.176C109.239 21.176 110.711 21.5387 111.991 22.264C113.271 22.9893 114.253 23.992 114.935 25.272C115.639 26.5307 115.991 27.96 115.991 29.56ZM112.983 28.952C112.983 27.8427 112.738 26.8933 112.247 26.104C111.757 25.2933 111.085 24.6853 110.231 24.28C109.399 23.8533 108.471 23.64 107.447 23.64C105.975 23.64 104.717 24.1093 103.671 25.048C102.647 25.9867 102.061 27.288 101.911 28.952H112.983ZM126.659 21.144C128.793 21.144 130.521 21.7947 131.843 23.096C133.166 24.376 133.827 26.232 133.827 28.664V39H130.947V29.08C130.947 27.3307 130.51 25.9973 129.635 25.08C128.761 24.1413 127.566 23.672 126.051 23.672C124.515 23.672 123.289 24.152 122.371 25.112C121.475 26.072 121.027 27.4693 121.027 29.304V39H118.115V21.464H121.027V23.96C121.603 23.064 122.382 22.3707 123.363 21.88C124.366 21.3893 125.465 21.144 126.659 21.144ZM171.707 16.696L165.243 39H161.979L156.795 21.048L151.419 39L148.187 39.032L141.947 16.696H145.051L149.915 35.608L155.291 16.696H158.555L163.675 35.544L168.571 16.696H171.707ZM180.822 39.288C179.179 39.288 177.686 38.9147 176.342 38.168C175.019 37.4213 173.974 36.3653 173.206 35C172.459 33.6133 172.086 32.0133 172.086 30.2C172.086 28.408 172.47 26.8293 173.238 25.464C174.027 24.0773 175.094 23.0213 176.438 22.296C177.782 21.5493 179.286 21.176 180.95 21.176C182.614 21.176 184.118 21.5493 185.462 22.296C186.806 23.0213 187.862 24.0667 188.63 25.432C189.419 26.7973 189.814 28.3867 189.814 30.2C189.814 32.0133 189.409 33.6133 188.598 35C187.809 36.3653 186.731 37.4213 185.366 38.168C184.001 38.9147 182.486 39.288 180.822 39.288ZM180.822 36.728C181.867 36.728 182.849 36.4827 183.766 35.992C184.683 35.5013 185.419 34.7653 185.974 33.784C186.55 32.8027 186.838 31.608 186.838 30.2C186.838 28.792 186.561 27.5973 186.006 26.616C185.451 25.6347 184.726 24.9093 183.83 24.44C182.934 23.9493 181.963 23.704 180.918 23.704C179.851 23.704 178.87 23.9493 177.974 24.44C177.099 24.9093 176.395 25.6347 175.862 26.616C175.329 27.5973 175.062 28.792 175.062 30.2C175.062 31.6293 175.318 32.8347 175.83 33.816C176.363 34.7973 177.067 35.5333 177.942 36.024C178.817 36.4933 179.777 36.728 180.822 36.728ZM194.835 24.312C195.347 23.3093 196.072 22.5307 197.011 21.976C197.971 21.4213 199.133 21.144 200.499 21.144V24.152H199.731C196.467 24.152 194.835 25.9227 194.835 29.464V39H191.923V21.464H194.835V24.312ZM205.052 15.32V39H202.14V15.32H205.052ZM207.207 30.168C207.207 28.376 207.57 26.808 208.295 25.464C209.021 24.0987 210.013 23.0427 211.271 22.296C212.551 21.5493 213.981 21.176 215.559 21.176C216.925 21.176 218.194 21.496 219.367 22.136C220.541 22.7547 221.437 23.576 222.055 24.6V15.32H224.999V39H222.055V35.704C221.479 36.7493 220.626 37.6133 219.495 38.296C218.365 38.9573 217.042 39.288 215.527 39.288C213.97 39.288 212.551 38.904 211.271 38.136C210.013 37.368 209.021 36.2907 208.295 34.904C207.57 33.5173 207.207 31.9387 207.207 30.168ZM222.055 30.2C222.055 28.8773 221.789 27.7253 221.255 26.744C220.722 25.7627 219.997 25.016 219.079 24.504C218.183 23.9707 217.191 23.704 216.103 23.704C215.015 23.704 214.023 23.96 213.127 24.472C212.231 24.984 211.517 25.7307 210.983 26.712C210.45 27.6933 210.183 28.8453 210.183 30.168C210.183 31.512 210.45 32.6853 210.983 33.688C211.517 34.6693 212.231 35.4267 213.127 35.96C214.023 36.472 215.015 36.728 216.103 36.728C217.191 36.728 218.183 36.472 219.079 35.96C219.997 35.4267 220.722 34.6693 221.255 33.688C221.789 32.6853 222.055 31.5227 222.055 30.2Z" fill="white"/>
<path d="M34.8333 14.3991L34.6433 12.4041L32.7433 13.0374C29.4871 14.1687 26.0098 14.5159 22.5942 14.0507C19.005 13.4937 15.3313 13.9887 12.0175 15.4757C10.2608 16.2238 8.71902 17.3993 7.53266 18.8954C6.3463 20.3915 5.55301 22.1606 5.22499 24.0416C4.79968 26.4715 5.01245 28.9702 5.84249 31.2932C6.37696 30.0869 7.0015 28.9225 7.71083 27.8099C9.31981 25.4425 11.5493 23.5637 14.155 22.3791C16.6653 21.2329 19.4091 20.6907 22.1667 20.7957C19.5415 21.1971 17.0287 22.1407 14.7883 23.5666C13.7077 24.2456 12.718 25.0596 11.8433 25.9891C11.0068 26.918 10.2692 27.9315 9.64249 29.0132C8.46533 31.2742 7.62773 33.6964 7.15666 36.2016C6.64891 38.7148 6.3733 41.2695 6.33333 43.8332H9.49999C9.64882 41.534 9.961 39.2482 10.4342 36.9932C12.6309 38.1795 15.0945 38.7844 17.5908 38.7507C19.9191 38.7491 22.2234 38.2807 24.3675 37.3732C36.4167 32.2274 34.8333 15.1116 34.8333 14.3991Z" fill="white"/>
</svg>
